<svg width="24" height="24" viewBox="0 0 24 24" fill="none" xmlns="http://www.w3.org/2000/svg">
<path fill-rule="evenodd" clip-rule="evenodd" d="M9.43091 7.1339C9.44535 6.97549 9.52212 6.82929 9.64432 6.72746C9.76652 6.62563 9.92416 6.57649 10.0826 6.59084L16.3048 7.15681C16.4604 7.17473 16.6029 7.25279 16.7017 7.37432C16.8005 7.49584 16.8479 7.6512 16.8337 7.80719C16.8195 7.96318 16.7449 8.10745 16.6258 8.20916C16.5067 8.31087 16.3525 8.36197 16.1962 8.35154L9.97396 7.78557C9.81555 7.77112 9.66936 7.69436 9.56753 7.57216C9.46569 7.44996 9.41655 7.29232 9.43091 7.1339Z" fill="#2C2C2C"/>
<path fill-rule="evenodd" clip-rule="evenodd" d="M16.8708 14.5738C16.7124 14.5881 16.5547 14.539 16.4325 14.4371C16.3103 14.3353 16.2335 14.1891 16.2191 14.0307L15.6531 7.80845C15.6427 7.65216 15.6938 7.49799 15.7955 7.37887C15.8972 7.25975 16.0415 7.18513 16.1975 7.17095C16.3535 7.15677 16.5088 7.20415 16.6304 7.30298C16.7519 7.4018 16.8299 7.54423 16.8479 7.69984L17.4138 13.9221C17.4282 14.0805 17.379 14.2382 17.2772 14.3604C17.1754 14.4826 17.0292 14.5593 16.8708 14.5738Z" fill="#2C2C2C"/>
<path fill-rule="evenodd" clip-rule="evenodd" d="M16.2505 7.75414C16.363 7.86666 16.4262 8.01928 16.4262 8.17841C16.4262 8.33754 16.363 8.49015 16.2505 8.60267L8.18946 16.6637C8.07694 16.7762 7.92433 16.8394 7.7652 16.8394C7.60607 16.8394 7.45346 16.7762 7.34093 16.6637C7.22841 16.5512 7.1652 16.3986 7.1652 16.2394C7.1652 16.0803 7.22841 15.9277 7.34093 15.8152L15.402 7.75414C15.5145 7.64162 15.6671 7.57841 15.8262 7.57841C15.9853 7.57841 16.138 7.64162 16.2505 7.75414Z" fill="#2C2C2C"/>
</svg>
