<svg width="78" height="18" viewBox="0 0 78 18" fill="none" xmlns="http://www.w3.org/2000/svg">
<path d="M0.879883 17V2.99995H6.69988C7.49988 2.99995 8.21988 3.19328 8.85988 3.57995C9.51322 3.96662 10.0332 4.49329 10.4199 5.15995C10.8066 5.82662 10.9999 6.57328 10.9999 7.39995C10.9999 8.23995 10.8066 8.99995 10.4199 9.67995C10.0332 10.3466 9.51322 10.88 8.85988 11.28C8.21988 11.68 7.49988 11.88 6.69988 11.88H3.47988V17H0.879883ZM3.47988 9.47995H6.51988C6.85322 9.47995 7.15322 9.38662 7.41988 9.19995C7.69988 9.01329 7.91988 8.76662 8.07988 8.45995C8.25322 8.15329 8.33988 7.80662 8.33988 7.41995C8.33988 7.03329 8.25322 6.69329 8.07988 6.39995C7.91988 6.09329 7.69988 5.85329 7.41988 5.67995C7.15322 5.49329 6.85322 5.39995 6.51988 5.39995H3.47988V9.47995Z" fill="#2C2C2C"/>
<path d="M19.791 17.2C18.791 17.2 17.8643 17.02 17.011 16.66C16.1576 16.3 15.411 15.8 14.771 15.16C14.1443 14.5066 13.6576 13.74 13.311 12.86C12.9643 11.98 12.791 11.02 12.791 9.97995C12.791 8.93995 12.9643 7.97995 13.311 7.09995C13.6576 6.21995 14.1443 5.45995 14.771 4.81995C15.411 4.16662 16.1576 3.65995 17.011 3.29995C17.8643 2.93995 18.791 2.75995 19.791 2.75995C20.8043 2.75995 21.7376 2.93995 22.591 3.29995C23.4443 3.65995 24.1843 4.16662 24.811 4.81995C25.4376 5.47329 25.9243 6.23995 26.271 7.11995C26.6176 7.98662 26.791 8.93995 26.791 9.97995C26.791 11.0066 26.6176 11.96 26.271 12.84C25.9243 13.72 25.4376 14.4866 24.811 15.14C24.1843 15.7933 23.4443 16.3 22.591 16.66C21.7376 17.02 20.8043 17.2 19.791 17.2ZM19.791 14.72C20.431 14.72 21.011 14.6066 21.531 14.38C22.0643 14.14 22.5243 13.8066 22.911 13.38C23.2976 12.94 23.5976 12.4333 23.811 11.86C24.0376 11.2866 24.151 10.66 24.151 9.97995C24.151 9.29995 24.0376 8.67329 23.811 8.09995C23.5976 7.52662 23.2976 7.02662 22.911 6.59995C22.5243 6.15995 22.0643 5.82662 21.531 5.59995C21.011 5.35995 20.431 5.23995 19.791 5.23995C19.1643 5.23995 18.5843 5.35995 18.051 5.59995C17.5176 5.82662 17.0576 6.15329 16.671 6.57995C16.2843 7.00662 15.9843 7.50662 15.771 8.07995C15.5576 8.65329 15.451 9.28662 15.451 9.97995C15.451 10.66 15.5576 11.2933 15.771 11.88C15.9843 12.4533 16.2843 12.9533 16.671 13.38C17.0576 13.8066 17.5176 14.14 18.051 14.38C18.5843 14.6066 19.1643 14.72 19.791 14.72Z" fill="#2C2C2C"/>
<path d="M33.3704 17L28.1384 0.199951H31.4024L34.3784 10.112C34.4744 10.416 34.5624 10.752 34.6424 11.12C34.7224 11.488 34.7944 11.856 34.8584 12.224C34.9224 12.576 34.9784 12.904 35.0264 13.208C35.0744 13.512 35.1224 13.768 35.1704 13.976L34.5224 13.952C34.7144 13.2 34.8664 12.592 34.9784 12.128C35.0904 11.664 35.1864 11.28 35.2664 10.976C35.3624 10.656 35.4584 10.36 35.5544 10.088L38.3864 2.83995H41.0504L43.8104 10.088C43.9704 10.536 44.1143 10.968 44.2424 11.384C44.3704 11.784 44.4743 12.184 44.5544 12.584C44.6504 12.968 44.7383 13.368 44.8184 13.784L44.2424 13.904C44.3064 13.52 44.3544 13.208 44.3864 12.968C44.4184 12.728 44.4504 12.512 44.4824 12.32C44.5144 12.128 44.5464 11.944 44.5784 11.768C44.6104 11.576 44.6584 11.352 44.7224 11.096C44.8024 10.824 44.8984 10.48 45.0104 10.064L47.9624 0.199951H51.2024L45.9464 17H43.6904L39.4184 6.77595L39.7064 6.87195L35.6504 17H33.3704Z" fill="#2C2C2C"/>
<path d="M53.4932 17V2.99995H62.6532V5.35995H56.0532V14.64H62.7332V17H53.4932ZM54.6932 11V8.67995H61.6332V11H54.6932Z" fill="#2C2C2C"/>
<path d="M65.9932 17V2.99995H72.0732C72.9132 2.99995 73.6798 3.19995 74.3732 3.59995C75.0665 3.98662 75.6132 4.51995 76.0132 5.19995C76.4265 5.86662 76.6332 6.61995 76.6332 7.45995C76.6332 8.25995 76.4265 8.99995 76.0132 9.67995C75.6132 10.3466 75.0665 10.88 74.3732 11.28C73.6932 11.6666 72.9265 11.86 72.0732 11.86H68.5332V17H65.9932ZM74.1132 17L70.5532 10.68L73.2332 10.18L77.1932 17.02L74.1132 17ZM68.5332 9.59995H72.0932C72.4798 9.59995 72.8132 9.51329 73.0932 9.33995C73.3865 9.15329 73.6132 8.89995 73.7732 8.57995C73.9332 8.25995 74.0132 7.90662 74.0132 7.51995C74.0132 7.07995 73.9132 6.69995 73.7132 6.37995C73.5132 6.05995 73.2332 5.80662 72.8732 5.61995C72.5132 5.43329 72.0998 5.33995 71.6332 5.33995H68.5332V9.59995Z" fill="#2C2C2C"/>
</svg>
