<svg width="50" height="49" viewBox="0 0 50 49" fill="none" xmlns="http://www.w3.org/2000/svg">
<path d="M39.7137 16.2113C40.0137 15.9112 40.1822 15.5043 40.1822 15.0801C40.1822 14.6558 40.0137 14.2489 39.7137 13.9488L35.6401 9.87525C35.4925 9.72243 35.316 9.60054 35.1208 9.51668C34.9256 9.43283 34.7156 9.38869 34.5032 9.38685C34.2907 9.385 34.08 9.42548 33.8834 9.50593C33.6868 9.58638 33.5081 9.70519 33.3579 9.85542C33.2077 10.0056 33.0889 10.1843 33.0084 10.3809C32.928 10.5776 32.8875 10.7882 32.8893 11.0007C32.8912 11.2131 32.9353 11.4231 33.0192 11.6183C33.103 11.8135 33.2249 11.9901 33.3777 12.1376L37.4481 16.2113C37.7482 16.5112 38.1551 16.6797 38.5793 16.6797C39.0036 16.6797 39.4137 16.5112 39.7137 16.2113ZM17.9921 35.6705C18.1407 35.8192 18.2585 35.9958 18.3388 36.1901C18.4191 36.3844 18.4604 36.5926 18.4602 36.8028C18.4601 37.013 18.4185 37.2212 18.3379 37.4153C18.2573 37.6095 18.1393 37.7859 17.9905 37.9345C17.8418 38.083 17.6652 38.2008 17.4709 38.2811C17.2766 38.3614 17.0684 38.4027 16.8582 38.4026C16.648 38.4024 16.4398 38.3609 16.2456 38.2803C16.0515 38.1997 15.8751 38.0816 15.7265 37.9329L11.6561 33.8625C11.3557 33.5624 11.1867 33.1554 11.1864 32.7308C11.1863 32.5206 11.2275 32.3124 11.3079 32.1181C11.3882 31.9238 11.506 31.7472 11.6545 31.5985C11.8031 31.4497 11.9795 31.3317 12.1736 31.2511C12.3678 31.1705 12.576 31.1289 12.7862 31.1288C13.2108 31.1285 13.6181 31.2968 13.9185 31.5969L17.9921 35.6705ZM47.9409 1.70564C47.0612 0.826104 45.8681 0.332001 44.6241 0.332001C43.3801 0.332001 42.1871 0.826104 41.3073 1.70564L39.3233 3.68964L38.5393 2.90884C37.921 2.29012 37.1732 1.81627 36.3496 1.52143C35.5261 1.2266 34.6474 1.11812 33.777 1.20383C32.9065 1.28953 32.0658 1.56728 31.3156 2.01705C30.5654 2.46683 29.9243 3.07742 29.4385 3.80484C27.9032 3.47152 26.3012 3.64428 24.8723 4.29727C23.4433 4.95025 22.2642 6.04836 21.5113 7.42731C20.7584 8.80626 20.4723 10.3919 20.6957 11.947C20.919 13.5022 21.6399 14.9432 22.7505 16.0545L24.8561 18.1569L18.5553 24.4577L16.4497 22.3521C15.3384 21.2415 13.8974 20.5206 12.3423 20.2972C10.7872 20.0738 9.20154 20.36 7.82259 21.1128C6.44364 21.8657 5.34553 23.0448 4.69254 24.4738C4.03955 25.9028 3.8668 27.5047 4.20012 29.0401C3.47459 29.5273 2.86581 30.169 2.4174 30.9192C1.96899 31.6694 1.69205 32.5094 1.60642 33.3792C1.52079 34.249 1.62859 35.1269 1.92209 35.9501C2.2156 36.7733 2.68754 37.5215 3.30412 38.1409L4.08812 38.9249L2.04972 40.9633C1.1692 41.8425 0.674024 43.0355 0.673124 44.2799C0.672223 45.5242 1.16567 46.7179 2.04492 47.5985C2.92416 48.479 4.11718 48.9742 5.36153 48.9751C6.60587 48.976 7.7996 48.4825 8.68012 47.6033L10.7217 45.5617L11.5025 46.3425C12.1208 46.9612 12.8687 47.435 13.6922 47.7299C14.5157 48.0247 15.3944 48.1332 16.2649 48.0475C17.1354 47.9618 17.976 47.684 18.7262 47.2343C19.4765 46.7845 20.1175 46.1739 20.6033 45.4465C22.1386 45.7798 23.7406 45.607 25.1696 44.954C26.5985 44.3011 27.7777 43.2029 28.5305 41.824C29.2834 40.445 29.5696 38.8594 29.3462 37.3043C29.1228 35.7491 28.4019 34.3081 27.2913 33.1969L25.1857 31.0945L31.4865 24.7969L33.5921 26.8993C34.7037 28.0084 36.1443 28.7279 37.6987 28.9505C39.2531 29.1731 40.8378 28.8866 42.2159 28.134C43.594 27.3814 44.6915 26.203 45.3445 24.775C45.9975 23.3469 46.1708 21.7459 45.8385 20.2113C46.1585 19.9979 46.4572 19.7526 46.7345 19.4753C47.8425 18.3653 48.4648 16.8611 48.4648 15.2929C48.4648 13.7246 47.8425 12.2204 46.7345 11.1104L45.9537 10.3296L47.9377 8.34565C48.8151 7.46412 49.3077 6.27099 49.3077 5.02724C49.3077 3.7835 48.8151 2.59037 47.9377 1.70884M43.6881 8.06405L41.5825 5.95204L43.5665 3.96804C43.7052 3.82958 43.8698 3.71978 44.0509 3.64493C44.232 3.57007 44.4261 3.53162 44.6221 3.53177C44.818 3.53191 45.012 3.57066 45.193 3.64579C45.374 3.72092 45.5385 3.83097 45.6769 3.96964C45.8154 4.10832 45.9252 4.27291 46 4.45402C46.0749 4.63513 46.1133 4.82921 46.1132 5.02518C46.1131 5.22115 46.0743 5.41517 45.9992 5.59616C45.924 5.77716 45.814 5.94158 45.6753 6.08005L43.6881 8.06405ZM29.2241 22.5281L22.9233 28.8289L20.8145 26.7201L27.1153 20.4225L29.2241 22.5281ZM8.45612 43.2961L6.41772 45.3345C6.13807 45.6145 5.75863 45.772 5.36285 45.7723C4.96707 45.7726 4.58739 45.6157 4.30732 45.3361C4.02725 45.0564 3.86974 44.677 3.86944 44.2812C3.86914 43.8854 4.02607 43.5057 4.30572 43.2257L6.35052 41.1873L8.45612 43.2961ZM32.4369 5.17125C32.9467 4.66318 33.6372 4.3779 34.3569 4.3779C35.0767 4.3779 35.7671 4.66318 36.2769 5.17125L44.4753 13.3696C44.8052 13.6975 45.0452 14.1046 45.1724 14.5519C45.2996 14.9992 45.3097 15.4718 45.2018 15.9241C45.0938 16.3765 44.8715 16.7935 44.556 17.1351C44.2405 17.4768 43.8425 17.7317 43.4001 17.8753C43.1858 17.9451 42.9887 18.0593 42.8217 18.2106C42.6546 18.3619 42.5214 18.5468 42.4308 18.7531C42.3402 18.9595 42.2941 19.1826 42.2957 19.408C42.2974 19.6333 42.3466 19.8558 42.4401 20.0609C42.8365 20.9291 42.9154 21.9089 42.6631 22.8294C42.4108 23.7499 41.8434 24.5526 41.0597 25.0974C40.276 25.6422 39.3259 25.8945 38.3752 25.8104C37.4245 25.7262 36.5335 25.3109 35.8577 24.6369L25.0097 13.792C24.3357 13.1163 23.9204 12.2253 23.8362 11.2746C23.752 10.3239 24.0044 9.37377 24.5492 8.59009C25.094 7.80642 25.8967 7.23892 26.8171 6.98663C27.7376 6.73433 28.7175 6.81326 29.5857 7.20965C29.7909 7.30376 30.0137 7.35339 30.2394 7.35528C30.4651 7.35717 30.6887 7.31127 30.8955 7.2206C31.1022 7.12993 31.2874 6.99654 31.4389 6.82919C31.5904 6.66185 31.7048 6.46434 31.7745 6.24965C31.9068 5.84373 32.1339 5.47196 32.4369 5.17125ZM8.42732 24.6177C9.19123 23.854 10.2272 23.425 11.3073 23.425C12.3875 23.425 13.4234 23.854 14.1873 24.6177L25.0321 35.4625C25.7061 36.1382 26.1215 37.0292 26.2056 37.9799C26.2898 38.9307 26.0375 39.8807 25.4927 40.6644C24.9479 41.4481 24.1452 42.0156 23.2247 42.2679C22.3042 42.5202 21.3244 42.4412 20.4561 42.0449C20.2511 41.9513 20.0286 41.9021 19.8033 41.9005C19.5779 41.8989 19.3547 41.9449 19.1484 42.0355C18.942 42.1262 18.7572 42.2594 18.6059 42.4264C18.4546 42.5935 18.3403 42.7906 18.2705 43.0049C18.1264 43.446 17.8716 43.8427 17.5304 44.1573C17.1893 44.4718 16.7731 44.6936 16.3218 44.8015C15.8705 44.9094 15.399 44.8997 14.9525 44.7734C14.506 44.6471 14.0993 44.4084 13.7713 44.0801L5.56972 35.8817C5.24143 35.5537 5.00273 35.147 4.87643 34.7005C4.75012 34.254 4.74044 33.7825 4.84829 33.3312C4.95615 32.8798 5.17795 32.4637 5.49249 32.1225C5.80704 31.7814 6.20382 31.5266 6.64492 31.3825C6.85962 31.3127 7.05713 31.1983 7.22447 31.0468C7.39181 30.8953 7.5252 30.7101 7.61587 30.5034C7.70654 30.2967 7.75244 30.0731 7.75055 29.8474C7.74867 29.6216 7.69904 29.3988 7.60492 29.1937C7.25749 28.4384 7.15006 27.5947 7.29712 26.7764C7.44417 25.9582 7.83864 25.2047 8.42732 24.6177Z" fill="black"/>
</svg>
